<?xml version="1.0" encoding="UTF-8"?>
<svg width="513.75" height="462.19" version="1.1" viewBox="0 0 513.75 462.19" xmlns="http://www.w3.org/2000/svg" xmlns:cc="http://creativecommons.org/ns#" xmlns:dc="http://purl.org/dc/elements/1.1/" xmlns:rdf="http://www.w3.org/1999/02/22-rdf-syntax-ns#">
 <metadata>
  <rdf:RDF>
   <cc:Work rdf:about="">
    <dc:format>image/svg+xml</dc:format>
    <dc:type rdf:resource="http://purl.org/dc/dcmitype/StillImage"/>
    <dc:title/>
   </cc:Work>
  </rdf:RDF>
 </metadata>
 <g id="guanhua_traditional" transform="translate(284.02)">
  <path id="guan_traditional" d="m98.903 0.63216q16.517-2.9151 32.067 7.7734 14.57 15.546 2.91 25.263-23.32-7.773-34.977-33.037zm97.167 32.066q28.179 15.547 31.094 29.15-0.97168 3.8867-10.688 3.8867-16.519 0-32.065 5.8301 0 0-0.97168 0.97168-10.688 5.8301-1.9434-4.8584 9.7168-15.547 7.7734-18.462-22.349-2.915-140.89 16.519-10.688 40.811-20.405 44.697-9.7168-7.7734-8.7451-19.434 0-1.9434 4.8584-9.7168 9.7168-16.519 13.604-30.122 1.9434-7.7734 4.8584-5.8301 2.915 0.97168 6.8018 11.66 109.81-14.576 141.87-23.321 3.8867-0.97168 4.8584-0.97168zm-53.442 45.669q17.49 2.915 24.292 13.604 0 0.97168-2.915 4.8584-9.7168 8.7451-15.547 23.32 5.8301 3.8867 5.8301 8.7451-0.97167 3.8867-15.547 3.8867-25.264 0.97168-49.556 4.8584v27.207q49.556-4.8584 62.188-10.688 1.9434-0.97168 2.915-0.97168 22.349 4.8584 25.264 14.575 0 2.915-4.8584 7.7734-8.7451 9.7168-13.604 21.377 12.632 9.7168 10.688 10.688 0 1.9434-25.264 2.915-32.065 1.9434-58.301 3.8867-0.97168 25.264-5.8301 24.292-7.7734-6.8018-11.66-22.349 0-0.97168 0.97168-1.9434 3.8867-10.688 5.8301-59.272 0.97168-46.641-5.8301-67.046-0.97168-2.915 0-3.8867 0.97168-1.9434 10.688 3.8867 5.8301 2.915 6.8018 2.915 34.98-0.97168 47.612-10.688 3.8867-1.9434 5.8301-1.9434zm-4.8584 15.547q-4.8584-1.9434-48.584 4.8584v30.122q30.122-0.97168 41.782-5.8301 8.7451-20.405 6.8018-29.15zm8.7451 73.848q-11.66 0-58.301 4.8584v34.009q34.98-0.97168 50.527-7.7734 13.604-16.519 7.7734-31.094z"/>
  <path id="hua_traditional" d="m171.78 279.5q20.405 3.8867 21.377 14.575 0 0.97168-4.8584 1.9434-4.8584 0.97168-8.7451 2.915-12.632 6.8018-24.292 10.688 14.575 5.8301 9.7168 14.575-0.97168 2.915-0.97168 3.8867 0 2.915-0.97168 6.8018-0.97168 7.7734-0.97168 12.632 13.604-2.915 29.15-6.8018 16.519-4.8584 22.349-3.8867 11.66 1.9434 15.547 8.7451 2.915 7.7734-7.7734 6.8018-19.434-1.9434-60.244 4.8584l-2.915 35.952 14.575-2.915q0.97168 0 1.9434-1.9434 5.8301-3.8867 8.7451-3.8867 23.32 7.7734 27.207 16.519 0 2.915-4.8584 5.8301-10.688 7.7734-15.547 21.377 6.8018 5.8301 6.8018 9.7168-0.97168 3.8867-7.7734 3.8867-9.7168 0.97168-37.896 3.8867-12.632 0.97168-18.462 1.9434 0 13.604-3.8867 12.632-2.915 4.8584-12.632-37.896-1.9434-8.7451-6.8018-15.547-3.8867-4.8584-2.915-7.7734 0.97168-2.915 11.66 0 6.8018 0.97168 9.7168 0.97168l19.434-3.8867 0.97168-35.952q-12.632 2.915-27.207 6.8018-10.688 2.915-14.575 2.915-22.349-4.8584-11.66-9.7168 20.405-1.9434 53.442-9.7168 0.97168-26.235-1.9434-36.924-14.575 3.8867-25.264 5.8301-2.915 0.97168-3.8867-0.97168-0.97168-0.97168 0.97168-2.915 39.839-20.405 50.527-33.037 0.97168-1.9434 2.915-2.915zm8.7451 119.52q-3.8867-1.9434-52.471 8.7451l3.8867 33.037q18.462-3.8867 42.754-8.7451 8.7451-30.122 5.8301-33.037zm-88.429-117.57q5.8301 5.8301 3.8867 13.604-1.9434 7.7734-8.7451 3.8867-9.7168-6.8018-23.32-24.292-2.915-4.8584 7.7734-2.915 13.604 3.8867 20.405 9.7168zm-16.518 113.68q17.49 3.8867 21.377 10.688 0 1.9434-1.9434 3.8867-5.8301 5.8301-8.7451 17.49 5.8301 2.915 6.8018 5.8301 0 2.915-5.8301 3.8867-8.7451 1.9434-26.235 5.8301-4.8584 0.97168-6.8018 1.9434 2.915 11.66-3.8867 10.688-2.915 0-7.7734-18.462-2.915-9.7168-4.8584-14.575-0.97168-3.8867-6.8018-9.7168-5.8301-6.8018-1.9434-8.7451 1.9434-1.9434 11.66 0 4.8584 1.9434 6.8018 1.9434 15.547-3.8867 24.292-8.7451 2.915-1.9434 3.8867-1.9434zm0.97168 10.688q-0.97168-0.97168-13.604 2.915-8.7451 2.915-14.575 4.8584l4.8584 22.349 20.405-6.8018q4.8584-20.405 2.915-23.32zm23.32-93.281q6.8018 0 8.7451 3.8867 1.9434 3.8867-3.8867 4.8584-34.009 3.8867-65.103 13.604-12.632 3.8867-17.49 3.8867-20.405-3.8867-18.462-11.66 20.405-1.9434 53.442-8.7451 30.122-4.8584 42.754-5.8301zm-20.405 56.357q6.8018-0.97168 11.66 2.915 2.915 3.8867-2.915 5.8301-19.434 6.8018-34.009 6.8018-21.377-0.97168-10.688-5.8301 17.49-2.915 28.179-7.7734 4.8584-1.9434 7.7734-1.9434zm3.8867-27.207q6.8018-0.97168 9.7168 2.915 1.9434 3.8867-3.8867 5.8301-17.49 6.8018-32.065 7.7734-21.377 0-15.547-4.8584 16.519-2.915 31.094-8.7451 6.8018-2.915 10.688-2.915z"/>
 </g>
 <g id="guanhua_simplified" transform="translate(-282.23)">
  <path id="guan_simplified" d="m377.83 0.63216q16.52-2.9151 32.06 7.7734 14.58 15.546 2.92 25.263-23.32-7.773-34.98-33.037zm97.17 32.066q28.179 15.547 31.094 29.15-0.97168 3.8867-10.688 3.8867-16.519 0-32.065 5.8301 0 0-0.97168 0.97168-10.688 5.8301-1.9434-4.8584 9.7168-15.547 7.7734-18.462-22.349-2.915-140.89 16.519-10.688 40.811-20.405 44.697-9.7168-7.7734-8.7451-19.434 0-1.9434 4.8584-9.7168 9.7168-16.519 13.604-30.122 1.9434-7.7734 4.8584-5.8301 2.915 0.97168 6.8018 11.66 109.8-14.575 141.87-23.32 3.8867-0.97168 4.8584-0.97168zm-53.442 45.669q17.49 2.915 24.292 13.604 0 0.97168-2.915 4.8584-9.7168 8.7451-15.547 23.32 5.8301 3.8867 5.8301 8.7451-0.97168 3.8867-15.547 3.8867-25.264 0.97168-49.556 4.8584v27.207q49.556-4.8584 62.188-10.688 1.9434-0.97168 2.915-0.97168 22.349 4.8584 25.264 14.575 0 2.915-4.8584 7.7734-8.7451 9.7168-13.604 21.377 12.632 9.7168 10.688 10.688 0 1.9434-25.264 2.915-32.065 1.9434-58.301 3.8867-0.97168 25.264-5.8301 24.292-7.7734-6.8018-11.66-22.349 0-0.97168 0.97168-1.9434 3.8867-10.688 5.8301-59.272 0.97168-46.641-5.8301-67.046-0.97168-2.915 0-3.8867 0.97168-1.9434 10.688 3.8867 5.8301 2.915 6.8018 2.915 34.98-0.97168 47.612-10.688 3.8867-1.9434 5.8301-1.9434zm-4.8584 15.547q-4.8584-1.9434-48.584 4.8584v30.122q30.122-0.97168 41.782-5.8301 8.7451-20.405 6.8018-29.15zm8.7451 73.848q-11.66 0-58.301 4.8584v34.009q34.98-0.97168 50.527-7.7734 13.604-16.519 7.7734-31.094z"/>
  <path id="hua_simplified" d="m338.96 277.56q14.575 0 26.235 6.8018 8.7451 6.8018 4.8584 17.49-4.8584 7.7734-14.575 0.97168-3.8867-2.915-10.688-7.7734-25.264-16.519-5.8301-17.49zm128.26 20.405q-5.8301 0.97168-16.519 5.8301-16.519 5.8301-31.094 10.688 25.264 7.7734 18.462 14.575-1.9434 2.915-4.8584 15.547-0.97168 3.8867-1.9434 5.8301 18.462-3.8867 36.924-7.7734 12.632-2.915 15.547-2.915 29.15 3.8867 26.235 15.547-1.9434 2.915-11.66 1.9434-29.15-3.8867-68.989 1.9434-2.915 11.66-5.8301 30.122-0.97168 4.8584-0.97168 5.8301 26.235-4.8584 34.009-8.7451 7.7734 0 21.377 9.7168 8.7451 7.7734 4.8584 10.688-16.519 10.688-20.405 25.264 1.9434 2.915 3.8867 5.8301 3.8867 1.9434 1.9434 4.8584 0 0-3.8867 0-26.235 0.97168-62.188 7.7734 0.97168 11.66-3.8867 11.66-4.8584-1.9434-8.7451-12.632-0.97168-2.915-0.97168-11.66-1.9434-25.264-7.7734-34.009-2.915-4.8584-2.915-6.8018 0.97168-0.97168 3.8867 0 3.8867 0 9.7168 1.9434 2.915 0 4.8584 0.97168 0.97167 0.97168 8.7451-0.97168 4.8584-0.97168 5.8301-0.97168 0-0.97168 0.97168-3.8867 1.9434-14.575 4.8584-34.009-7.7734 2.915-30.122 5.8301-7.7734 1.9434-8.7451 1.9434-5.8301 0.97168-15.547-5.8301-4.8584-3.8867 1.9434-4.8584 37.896-1.9434 53.442-5.8301 0-1.9434 0.97168-4.8584 2.915-21.377-3.8867-30.122-32.065 10.688-24.292 1.9434 46.641-22.349 48.584-32.065-0.97168-10.688 18.462-3.8867 23.32 12.632 9.7168 15.547zm-134.09 40.811q3.8867-2.915 15.547 1.9434 8.7451 3.8867 5.8301 7.7734-8.7451 9.7168-13.604 36.924-0.97168 14.575-0.97168 35.952 5.8301-2.915 25.264-14.575 6.8018-4.8584 7.7734-2.915 0.97168 1.9434-4.8584 7.7734-29.15 28.179-37.896 40.811-10.688 3.8867-12.632-19.434 8.7451-4.8584 12.632-37.896 3.8867-33.037 0.97168-38.867-15.547 3.8867-29.15 11.66-3.8867 1.9434-4.8584 1.9434-19.434-8.7451-13.604-12.632 0.97168 0 2.915 0 19.434-1.9434 31.094-5.8301 8.7451-2.915 15.547-12.632zm119.52 62.188q-5.8301-4.8584-53.442 5.8301 0.97168 10.688 1.9434 23.32 0.97168 7.7734 0.97168 11.66 32.065-3.8867 39.839-7.7734 4.8584-3.8867 9.7168-18.462 3.8867-12.632 0.97168-14.575z"/>
 </g>
</svg>
